<?xml version="1.0" standalone="no"?>
<!DOCTYPE svg PUBLIC "-//W3C//DTD SVG 1.1//EN" "http://www.w3.org/Graphics/SVG/1.1/DTD/svg11.dtd" >
<svg>
<metadata>
Created by FontForge 20110222 at Wed Jul 24 17:35:20 2013
 By Orthosie Webhosting
Copyright (c) 2013, Eduardo Tunni (http://www.tipo.net.ar), with Reserved Font Name 'Sintony'
</metadata>
<defs>
<font id="Sintony-Bold" horiz-adv-x="580" >
  <font-face 
    font-family="Sintony"
    font-weight="700"
    font-stretch="normal"
    units-per-em="1000"
    panose-1="2 0 5 3 5 0 0 2 0 4"
    ascent="800"
    descent="-200"
    x-height="572"
    cap-height="730"
    bbox="-60 -308 1316 995"
    underline-thickness="3"
    underline-position="1"
    unicode-range="U+0020-FB02"
  />
<missing-glyph horiz-adv-x="275" 
 />
    <glyph glyph-name="fi" unicode="fi" horiz-adv-x="689" 
d="M293 670q-53 0 -53 -59v-39h108v-87h-108v-485h-134v485h-62v87h62v39q0 164 173 164q65 0 114 -18l-33 -101q-34 14 -67 14zM461 572h134v-572h-134v572zM528 640q-75 0 -75 77.5t75 77.5q77 0 77 -77.5t-77 -77.5z" />
    <glyph glyph-name="fl" unicode="fl" horiz-adv-x="689" 
d="M293 670q-53 0 -53 -59v-39h108v-87h-108v-485h-134v485h-62v87h62v39q0 164 173 164q65 0 114 -18l-33 -101q-34 14 -67 14zM595 0h-134v752l134 18v-770z" />
    <glyph glyph-name=".notdef" horiz-adv-x="275" 
 />
    <glyph glyph-name=".null" horiz-adv-x="0" 
 />
    <glyph glyph-name="nonmarkingreturn" horiz-adv-x="333" 
 />
    <glyph glyph-name="space" unicode=" " horiz-adv-x="275" 
 />
    <glyph glyph-name="exclam" unicode="!" horiz-adv-x="298" 
d="M198 5q-17 -13 -48.5 -13t-48 13t-20 27.5t-3.5 34.5t2 31.5t8.5 24.5t21.5 19.5t39 6.5t40 -6.5t23 -19.5q10 -21 10 -48.5t-3.5 -42t-20.5 -27.5zM75 730h148v-182l-34 -339h-80l-34 339v182z" />
    <glyph glyph-name="quotedbl" unicode="&#x22;" horiz-adv-x="416" 
d="M240 730h128v-66l-26 -197h-76l-26 197v66zM48 730h128v-66l-26 -197h-76l-26 197v66z" />
    <glyph glyph-name="numbersign" unicode="#" horiz-adv-x="814" 
d="M415 -76l42 232h-175l-42 -232h-135l42 232h-103l19 105h103l37 207h-103l19 105h103l43 232h135l-43 -232h175l43 232h135l-43 -232h103l-19 -105h-103l-37 -207h104l-19 -105h-104l-42 -232h-135zM338 468l-37 -207h175l37 207h-175z" />
    <glyph glyph-name="dollar" unicode="$" horiz-adv-x="630" 
d="M115 381q-45 51 -45 144t47.5 146.5t154.5 62.5v109h91v-109q105 -9 150.5 -60t45.5 -148l-118 -9q0 58 -27 85.5t-92 27.5t-91.5 -26t-26.5 -80q0 -86 85 -97l88 -12q199 -26 199 -215t-213 -205v-108h-91v108q-112 8 -159 59t-47 149l118 9q0 -58 29.5 -87.5
t100.5 -29.5t100 26.5t29 78.5q0 86 -98 101l-87 14q-98 15 -143 66z" />
    <glyph glyph-name="percent" unicode="%" horiz-adv-x="976" 
d="M320 -66l214 801h85l-215 -801h-84zM750 -8q-94 0 -129.5 54.5t-35.5 155.5t35.5 156.5t129.5 55.5t130 -55.5t36 -156.5t-36 -155.5t-130 -54.5zM710 105q10 -28 40.5 -28t40.5 28t10 98t-10 97.5t-40.5 27.5t-40.5 -27.5t-10 -97.5t10 -98zM199 318q-94 0 -129.5 54.5
t-35.5 155.5t35.5 156.5t129.5 55.5t130 -55.5t36 -156.5t-36 -155.5t-130 -54.5zM159 431q10 -28 40.5 -28t40.5 28t10 98t-10 97.5t-40.5 27.5t-40.5 -27.5t-10 -97.5t10 -98z" />
    <glyph glyph-name="ampersand" unicode="&#x26;" horiz-adv-x="645" 
d="M294 637q-54 0 -77.5 -27.5t-23.5 -79.5t23 -84t63 -32h11v-93q-59 0 -88 -27.5t-29 -88t29.5 -87t96.5 -26.5t95.5 29t28.5 90v110h-64v93h294v-93h-112v-95q0 -66 -9.5 -107.5t-36 -73.5t-76.5 -46t-130 -14q-130 0 -190 56.5t-60 153.5q0 70 38.5 117.5t102.5 63.5
q-53 19 -87 64t-34 104q0 91 53.5 145.5t163 54.5t160 -36t64.5 -115l-114 -36q-13 80 -92 80z" />
    <glyph glyph-name="quotesingle" unicode="'" horiz-adv-x="224" 
d="M48 730h128v-66l-26 -197h-76l-26 197v66z" />
    <glyph glyph-name="parenleft" unicode="(" horiz-adv-x="318" 
d="M309 28v-94q-121 0 -179 60q-59 60 -76 148q-17 84 -17 173t4.5 140t21.5 107t45.5 91.5t79.5 58.5t121 23v-94q-59 0 -87 -45.5t-34.5 -98t-8 -85.5t-1.5 -77t1.5 -77t6 -71t13.5 -64.5t23 -48.5q28 -46 87 -46z" />
    <glyph glyph-name="parenright" unicode=")" horiz-adv-x="318" 
d="M9 641v94q121 0 179 -59q59 -61 76 -148q17 -85 17 -174t-4.5 -140t-21.5 -107t-45.5 -91.5t-79.5 -58.5t-121 -23v94q59 0 87 45.5t34.5 98t8 85.5t1.5 77t-1.5 77t-6 71t-13.5 64.5t-23 49.5q-28 45 -87 45z" />
    <glyph glyph-name="asterisk" unicode="*" horiz-adv-x="557" 
d="M214 779h128v-95l-44 -107h-40l-44 107v95zM24 554l36 107l91 -30l90 -67l-13 -38l-113 -3zM181 293l-97 73l56 81l95 59l32 -25l-28 -108zM473 366l-97 -73l-58 80l-29 108l33 24l95 -58zM497 661l36 -107l-91 -31l-113 2l-12 39l88 67z" />
    <glyph glyph-name="plus" unicode="+" 
d="M86 272v92h158v158h92v-158h158v-92h-158v-158h-92v158h-158z" />
    <glyph glyph-name="comma" unicode="," horiz-adv-x="226" 
d="M55 24.5q-10 29.5 -10 47.5t2 29t8 23q13 25 50 25t53.5 -12.5t19.5 -26.5t3 -36q0 -111 -127 -212l-35 41q46 44 46 79q0 13 -10 42.5z" />
    <glyph glyph-name="hyphen" unicode="-" horiz-adv-x="476" 
d="M62 272v92h352v-92h-352z" />
    <glyph glyph-name="period" unicode="." horiz-adv-x="234" 
d="M156.5 -1.5q-15.5 -6.5 -43.5 -6.5t-44.5 13t-20 27.5t-3.5 34.5t2 31.5t9 24.5q12 26 60 26q50 0 62 -26q11 -21 11 -45.5t-2 -35.5t-8.5 -24t-22 -19.5z" />
    <glyph glyph-name="slash" unicode="/" horiz-adv-x="356" 
d="M-8 -106l237 881h135l-237 -881h-135z" />
    <glyph glyph-name="zero" unicode="0" horiz-adv-x="646" 
d="M323 -14q-80 0 -135 28.5t-84 83t-41 118.5t-12 149t12 149t41 118.5t84 83.5t135 29t135.5 -29t84.5 -83.5t41 -118.5t12 -149t-12 -149t-41 -118.5t-84.5 -83t-135.5 -28.5zM323 91q79 0 108.5 67t29.5 207t-29.5 207t-108.5 67q-54 0 -85 -34t-41.5 -91t-10.5 -173
t29 -183t108 -67z" />
    <glyph glyph-name="one" unicode="1" horiz-adv-x="646" 
d="M129 596v79q117 13 176 55h107v-624h145v-106h-426v106h145v490h-147z" />
    <glyph glyph-name="two" unicode="2" horiz-adv-x="646" 
d="M324 744q115 0 175.5 -55.5t60.5 -149.5q0 -57 -27.5 -107.5t-80.5 -108.5l-200 -217h319v-106h-503v96l266 289q49 53 70.5 85.5t21.5 73t-28 67.5t-83 27q-115 0 -121 -112l-117 17q17 201 247 201z" />
    <glyph glyph-name="three" unicode="3" horiz-adv-x="646" 
d="M307 92q133 0 133 106q0 114 -143 114h-74v98h75q71 0 101.5 30t30.5 84.5t-31.5 84t-91.5 29.5q-112 0 -118 -113l-117 16q15 203 244 203q120 0 184 -59.5t64 -158.5q0 -111 -108 -162q117 -47 117 -175q0 -90 -70.5 -146.5t-189.5 -56.5t-181.5 47t-72.5 145l117 15
q12 -101 131 -101z" />
    <glyph glyph-name="four" unicode="4" horiz-adv-x="646" 
d="M504 0h-131v154h-353v98l285 478h199v-470h77v-106h-77v-154zM373 260v345l-201 -345h201z" />
    <glyph glyph-name="five" unicode="5" horiz-adv-x="646" 
d="M327 91q64 0 95.5 34t31.5 93.5t-50 94.5t-182 35h-124l25 382h420v-106h-307l-11 -167h44q164 0 242 -64t78 -179q0 -97 -67.5 -162.5t-194.5 -65.5q-228 0 -241 222l117 10q6 -127 124 -127z" />
    <glyph glyph-name="six" unicode="6" horiz-adv-x="646" 
d="M334 638q-75 0 -105 -55.5t-34 -167.5q85 19 158 19q241 0 241 -214q0 -113 -64 -173.5t-202 -60.5q-265 0 -265 348q0 203 60 306.5t211 103.5q231 0 244 -211l-117 -12q-6 117 -127 117zM323 334q-66 0 -128 -17q4 -125 36 -175.5t103 -50.5q128 0 128 129
q0 114 -139 114z" />
    <glyph glyph-name="seven" unicode="7" horiz-adv-x="646" 
d="M68 624v106h502v-92l-276 -638h-145l274 624h-355z" />
    <glyph glyph-name="eight" unicode="8" horiz-adv-x="646" 
d="M58 190q0 119 107 173q-97 50 -97 170q0 92 65.5 151.5t190 59.5t190 -59.5t65.5 -151.5q0 -110 -96 -163q106 -52 106 -180q0 -89 -72 -146.5t-193.5 -57.5t-193.5 57.5t-72 146.5zM194 193q0 -47 33 -76t96 -29t97 29.5t34 79t-22 80t-76 39.5l-68 10q-94 -20 -94 -133
zM232.5 609.5q-29.5 -32.5 -29.5 -82.5t21.5 -77t76.5 -36l56 -9q43 11 65 43t22 80.5t-29.5 81t-91 32.5t-91 -32.5z" />
    <glyph glyph-name="nine" unicode="9" horiz-adv-x="646" 
d="M308 91q74 0 104 50.5t35 168.5q-73 -19 -154 -19q-128 0 -185 59t-57 159t72.5 167.5t206.5 67.5t193.5 -91.5t59.5 -262.5q0 -101 -12 -171.5t-42 -124.5q-59 -108 -220 -108q-235 0 -246 208l116 13q6 -116 129 -116zM219.5 427.5q32.5 -34.5 101.5 -34.5t126 15
q-3 120 -30.5 175t-94 55t-101 -35t-34.5 -88t32.5 -87.5z" />
    <glyph glyph-name="colon" unicode=":" horiz-adv-x="234" 
d="M156.5 -1.5q-15.5 -6.5 -43.5 -6.5t-44.5 13t-20 27.5t-3.5 34.5t2 31.5t9 24.5q12 26 60 26q50 0 62 -26q11 -21 11 -45.5t-2 -35.5t-8.5 -24t-22 -19.5zM156.5 395.5q-15.5 -6.5 -43.5 -6.5t-44.5 13t-20 27.5t-3.5 34.5t2 31.5t9 24.5q12 26 60 26q50 0 62 -26
q11 -21 11 -45.5t-2 -35.5t-8.5 -24t-22 -19.5z" />
    <glyph glyph-name="semicolon" unicode=";" horiz-adv-x="226" 
d="M55 24.5q-10 29.5 -10 47.5t2 29t8 23q13 25 50 25t53.5 -12.5t19.5 -26.5t3 -36q0 -111 -127 -212l-35 41q46 44 46 79q0 13 -10 42.5zM152.5 395.5q-15.5 -6.5 -43.5 -6.5t-44.5 13t-20 27.5t-3.5 34.5t2 31.5t9 24.5q12 26 60 26q50 0 62 -26q11 -21 11 -45.5
t-2 -35.5t-8.5 -24t-22 -19.5z" />
    <glyph glyph-name="less" unicode="&#x3c;" 
d="M89 259v116l402 172v-102l-318 -128l318 -128v-102z" />
    <glyph glyph-name="equal" unicode="=" 
d="M86 380v92h408v-92h-408zM86 164v92h408v-92h-408z" />
    <glyph glyph-name="greater" unicode="&#x3e;" 
d="M491 375v-116l-402 -172v102l317 128l-317 128v102z" />
    <glyph glyph-name="question" unicode="?" horiz-adv-x="468" 
d="M249.5 -1.5q-15.5 -6.5 -43.5 -6.5t-44.5 13t-20 27.5t-3.5 34.5t2 31.5t8 24.5q14 26 61 26q49 0 63 -26q10 -21 10 -45.5t-2 -35.5t-8.5 -24t-22 -19.5zM82.5 698.5q54.5 45.5 156.5 45.5t161.5 -61.5t59.5 -145t-55.5 -138t-143.5 -80.5l-11 -110h-84l-9 156
q91 28 130 67.5t39 91.5t-23.5 85.5t-71.5 33.5q-88 0 -96 -88l-115 16q8 82 62.5 127.5z" />
    <glyph glyph-name="at" unicode="@" horiz-adv-x="1052" 
d="M534 -113q-300 0 -400 173q-60 103 -60 268q0 205 114 323t336 118t338 -107t116 -297q0 -112 -44 -173q-50 -67 -185 -67h-119l-33 48q-62 -58 -134 -58q-153 0 -153 225t186 225q69 0 135 -32l25 32h52v-352h29q70 0 97 34t27 118q0 139 -77 224t-250 85
q-184 0 -262 -96q-72 -89 -72 -250q0 -66 7.5 -115.5t29.5 -95t59 -73.5q78 -62 238 -62h174v-95h-174zM513 206q38 0 73 35v222q-26 10 -57 10q-53 0 -76 -33t-23 -100q0 -134 83 -134z" />
    <glyph glyph-name="A" unicode="A" horiz-adv-x="642" 
d="M233 730h177l224 -730h-131l-62 202h-240l-61 -202h-132zM321 601l-89 -296h178z" />
    <glyph glyph-name="B" unicode="B" horiz-adv-x="625" 
d="M358 0h-264v730h230q135 0 188 -60q47 -54 47 -127q0 -125 -107 -166q72 -20 105.5 -70t33.5 -112q0 -77 -47 -132q-24 -29 -72 -46t-114 -17zM230 105h120q52 0 78.5 29t26.5 79t-26.5 79t-78.5 29h-120v-216zM230 425h92q48 0 74.5 26.5t26.5 73t-26.5 73.5t-74.5 27
h-92v-200z" />
    <glyph glyph-name="C" unicode="C" horiz-adv-x="626" 
d="M352 634q-94 0 -127 -61.5t-33 -207t33 -207.5t127 -62q73 0 103.5 40t32.5 116l110 -5q-8 -129 -61.5 -195t-184.5 -66q-171 0 -236 100q-33 50 -46.5 116.5t-13.5 162.5t13.5 162.5t46.5 116.5q65 100 236 100q123 0 177 -55t66 -162l-110 -17q-6 60 -37 92t-96 32z
" />
    <glyph glyph-name="D" unicode="D" horiz-adv-x="698" 
d="M94 730h243q177 0 240 -108q31 -52 43 -113t12 -135.5t-7 -125.5t-26.5 -99.5t-51.5 -79.5q-71 -69 -210 -69h-243v730zM319 625h-89v-520h89q107 0 145 77q32 67 32 183t-32 183q-38 77 -145 77z" />
    <glyph glyph-name="E" unicode="E" horiz-adv-x="560" 
d="M94 730h412v-105h-276v-202h251v-104h-251v-214h296v-105h-432v730z" />
    <glyph glyph-name="F" unicode="F" horiz-adv-x="512" 
d="M94 730h392v-105h-256v-202h223v-104h-223v-319h-136v730z" />
    <glyph glyph-name="G" unicode="G" horiz-adv-x="695" 
d="M348 96q144 0 146 156v34h-112v87h229v-373h-68l-23 73q-64 -87 -180 -87q-164 0 -226 102q-32 52 -45 118t-13 160.5t13.5 161t46.5 116.5q65 100 236 100q123 0 177 -55t66 -162l-110 -17q-6 60 -37 92t-96 32q-94 0 -127 -62t-33 -205t32.5 -207t123.5 -64z" />
    <glyph glyph-name="H" unicode="H" horiz-adv-x="730" 
d="M500 730h136v-730h-136v313h-270v-313h-136v730h136v-313h270v313z" />
    <glyph glyph-name="I" unicode="I" horiz-adv-x="324" 
d="M94 730h136v-730h-136v730z" />
    <glyph glyph-name="J" unicode="J" horiz-adv-x="485" 
d="M406 730v-547q0 -46 -6.5 -76t-26.5 -61q-40 -60 -179 -60q-113 0 -152 48q-26 33 -31 67q-7 47 -7 106h118q0 -62 16 -86.5t58.5 -24.5t58 19t15.5 68v547h136z" />
    <glyph glyph-name="K" unicode="K" horiz-adv-x="621" 
d="M230 319v-319h-136v730h136v-308h51l185 308h140l-220 -360l239 -370h-145l-205 319h-45z" />
    <glyph glyph-name="L" unicode="L" horiz-adv-x="483" 
d="M94 0v730h136v-625h249v-105h-385z" />
    <glyph glyph-name="M" unicode="M" horiz-adv-x="885" 
d="M592 730h190l19 -730h-134l-11 562l-163 -475h-118l-147 459l-10 -546h-134l18 730h191l143 -461z" />
    <glyph glyph-name="N" unicode="N" horiz-adv-x="757" 
d="M527 730h136v-730h-144l-289 496v-496h-136v730h144l289 -497v497z" />
    <glyph glyph-name="O" unicode="O" horiz-adv-x="709" 
d="M502.5 14.5q-60.5 -28.5 -140 -28.5t-132.5 19.5t-86 52t-53 82.5q-35 88 -35 225q0 85 13 149t45 118q64 112 240 112q200 0 264 -155q35 -87 35 -224q0 -86 -13 -150t-45 -118t-92.5 -82.5zM354 96q91 0 127 71t36 198t-36 198t-127 71q-96 0 -131 -78
q-31 -71 -31 -191q0 -200 81 -249q33 -20 81 -20z" />
    <glyph glyph-name="P" unicode="P" horiz-adv-x="597" 
d="M346 259h-116v-259h-136v730h252q132 0 186 -72q47 -65 47 -164q0 -98 -47 -162q-54 -73 -186 -73zM230 364h95q118 0 118 130.5t-118 130.5h-95v-261z" />
    <glyph glyph-name="Q" unicode="Q" horiz-adv-x="699" 
d="M63 239q-7 54 -7 137t12.5 148.5t44.5 117.5t90.5 77t145.5 25t146 -25.5t90.5 -77t44.5 -117t13 -181.5t-30 -201.5t-106 -124.5l132 -56l-54 -105l-264 131q-182 9 -233 150q-18 48 -25 102zM225.5 162.5q33.5 -66.5 124 -66.5t124 66.5t33.5 202.5t-33.5 202.5
t-124 66.5t-124 -66.5t-33.5 -202.5t33.5 -202.5z" />
    <glyph glyph-name="R" unicode="R" horiz-adv-x="660" 
d="M94 730h255q139 0 193 -73q46 -63 46 -148q0 -151 -118 -200q22 -24 38 -60l111 -249h-145l-104 237q-14 30 -30.5 41t-49.5 11h-60v-289h-136v730zM230 394h103q60 0 89.5 33t29.5 82.5t-29.5 82.5t-89.5 33h-103v-231z" />
    <glyph glyph-name="S" unicode="S" horiz-adv-x="603" 
d="M515 341q44 -48 44 -144t-66 -153.5t-194 -57.5t-185 54.5t-70 158.5l109 17q6 -59 40.5 -91.5t96.5 -32.5q133 0 133 101q0 43 -25 65t-96 40l-57 14q-100 25 -143 74t-43 146.5t63 154.5t186.5 57t178 -54.5t67.5 -158.5l-108 -17q-13 124 -128 124q-63 0 -93 -27.5
t-30 -72.5t23 -67t88 -39l63 -17q102 -26 146 -74z" />
    <glyph glyph-name="T" unicode="T" horiz-adv-x="515" 
d="M-2 627v103h519v-103h-191v-627h-136v627h-192z" />
    <glyph glyph-name="U" unicode="U" horiz-adv-x="703" 
d="M488 730h136v-489q0 -67 -17 -115t-42 -74.5t-64 -42t-72.5 -19.5t-77.5 -4t-77.5 4t-72.5 19.5t-63.5 42t-41.5 74.5t-17 115v489h136v-479q0 -93 36 -123.5t100 -30.5q31 0 52 5t42 20q43 31 43 129v479z" />
    <glyph glyph-name="V" unicode="V" horiz-adv-x="629" 
d="M402 0h-176l-216 730h136l168 -598l168 598h137z" />
    <glyph glyph-name="W" unicode="W" horiz-adv-x="907" 
d="M360 0h-197l-141 730h136l108 -595l120 595h135l119 -595l109 595h136l-141 -730h-197l-94 455z" />
    <glyph glyph-name="X" unicode="X" horiz-adv-x="622" 
d="M5 730h155l164 -253l152 253h143l-223 -364l238 -366h-155l-173 266l-157 -266h-142l228 376z" />
    <glyph glyph-name="Y" unicode="Y" horiz-adv-x="574" 
d="M355 0h-136v254l-225 476h136l157 -349l157 349h136l-225 -476v-254z" />
    <glyph glyph-name="Z" unicode="Z" horiz-adv-x="562" 
d="M42 625v105h488v-86l-345 -539h355v-105h-518v86l345 539h-325z" />
    <glyph glyph-name="bracketleft" unicode="[" horiz-adv-x="328" 
d="M72 -66v801h247v-92h-110v-617h110v-92h-247z" />
    <glyph glyph-name="backslash" unicode="\" horiz-adv-x="356" 
d="M127 775l237 -881h-135l-237 881h135z" />
    <glyph glyph-name="bracketright" unicode="]" horiz-adv-x="328" 
d="M256 735v-801h-247v92h110v617h-110v92h247z" />
    <glyph glyph-name="asciicircum" unicode="^" 
d="M232 618h116l152 -302h-102l-108 229l-108 -229h-102z" />
    <glyph glyph-name="underscore" unicode="_" horiz-adv-x="564" 
d="M62 -92v92h440v-92h-440z" />
    <glyph glyph-name="grave" unicode="`" horiz-adv-x="298" 
d="M271 692l-45 -72l-210 109l60 96z" />
    <glyph glyph-name="a" unicode="a" horiz-adv-x="597" 
d="M295 586q218 0 218 -199v-387h-87l-38 70q-80 -84 -187 -84q-76 0 -115.5 42.5t-39.5 114t45 115.5t168 62l120 18v48q0 97 -92 97q-87 0 -103 -88l-104 31q38 160 215 160zM244 84q68 0 135 67v103l-96 -17q-65 -11 -86 -35t-21 -54t18 -47t50 -17z" />
    <glyph glyph-name="b" unicode="b" horiz-adv-x="628" 
d="M362 -14q-91 0 -173 52l-31 -38h-64v752l134 10v-204q68 28 134 28q230 0 230 -300t-230 -300zM325 483q-48 0 -97 -20v-351q43 -23 94 -23q136 0 136 197t-133 197z" />
    <glyph glyph-name="c" unicode="c" horiz-adv-x="536" 
d="M170 286q0 -101 25.5 -149t89 -48t91 26t29.5 82l105 -5q-6 -102 -59.5 -154t-175.5 -52q-143 0 -195 93q-25 45 -34.5 94t-9.5 113.5t9.5 114t34.5 93.5q51 92 195 92q121 0 174 -49.5t60 -147.5l-104 -14q-2 56 -29.5 82t-91 26t-89 -48t-25.5 -149z" />
    <glyph glyph-name="d" unicode="d" horiz-adv-x="628" 
d="M229 -14q-193 0 -193 300t234 300q66 0 130 -24v190l134 10v-762h-87l-37 71q-83 -85 -181 -85zM282 89q62 0 118 64v310q-49 20 -96 20q-72 0 -103 -50t-31 -147q0 -197 112 -197z" />
    <glyph glyph-name="e" unicode="e" horiz-adv-x="563" 
d="M292 -14q-138 0 -197 74.5t-59 225.5q0 300 252 300q145 0 198 -90q46 -77 46 -200v-36h-366q1 -94 31 -132.5t99 -38.5q111 0 118 80l110 -4q-16 -179 -232 -179zM287 483q-57 0 -83.5 -31.5t-34.5 -100.5h231q-6 67 -31 99.5t-82 32.5z" />
    <glyph glyph-name="f" unicode="f" horiz-adv-x="351" 
d="M293 670q-53 0 -53 -59v-39h108v-87h-108v-485h-134v485h-62v87h62v39q0 164 173 164q65 0 114 -18l-33 -101q-34 14 -67 14z" />
    <glyph glyph-name="g" unicode="g" horiz-adv-x="578" 
d="M401 186.5q-47 -18.5 -110.5 -18.5t-105.5 15l-28 -30q-17 -17 -17 -33q0 -24 33 -24h213q79 0 124.5 -43t45.5 -101t-24 -92t-69 -50q-76 -27 -194.5 -27t-182.5 28.5t-64 97.5q0 33 19 59.5t47 40.5q-61 19 -61 89q0 46 36 85l46 48q-47 54 -47 146q0 81 44 140
q50 69 182 69q57 0 99 -14h167v-79h-66q27 -49 27 -102.5t-10 -87.5t-33.5 -66t-70.5 -50.5zM190 377q0 -120 98.5 -120t98.5 120t-98.5 120t-98.5 -120zM176.5 -107q32.5 -10 107.5 -10t106.5 11.5t31.5 49.5q0 56 -78 56h-171q-29 -26 -29 -61.5t32.5 -45.5z" />
    <glyph glyph-name="h" unicode="h" horiz-adv-x="663" 
d="M228 537q82 49 172.5 49t134.5 -48.5t44 -133.5v-404h-134v390q0 51 -18.5 72t-64.5 21q-72 0 -134 -45v-438h-134v752l134 10v-225z" />
    <glyph glyph-name="i" unicode="i" horiz-adv-x="322" 
d="M94 572h134v-572h-134v572zM161 640q-75 0 -75 77.5t75 77.5q77 0 77 -77.5t-77 -77.5z" />
    <glyph glyph-name="j" unicode="j" horiz-adv-x="322" 
d="M41 -104q53 0 53 59v617h134v-617q0 -164 -173 -164q-64 0 -115 17l33 101q33 -13 68 -13zM161 640q-75 0 -75 77.5t75 77.5q77 0 77 -77.5t-77 -77.5z" />
    <glyph glyph-name="k" unicode="k" horiz-adv-x="575" 
d="M228 0h-134v752l134 10v-408h41l151 218h145l-192 -272l210 -300h-145l-182 264h-28v-264z" />
    <glyph glyph-name="l" unicode="l" horiz-adv-x="322" 
d="M228 0h-134v752l134 18v-770z" />
    <glyph glyph-name="m" unicode="m" horiz-adv-x="998" 
d="M371 586q120 0 168 -69q86 69 183.5 69t144.5 -48.5t47 -133.5v-404h-134v382q0 52 -19 76.5t-67 24.5q-68 0 -125 -47q2 -20 2 -32v-404h-134v382q0 52 -20 76.5t-76.5 24.5t-112.5 -40v-443h-134v572h71l35 -47q81 61 171 61z" />
    <glyph glyph-name="n" unicode="n" horiz-adv-x="663" 
d="M200 520q94 66 192.5 66t142.5 -48.5t44 -133.5v-404h-134v390q0 51 -18.5 72t-64.5 21q-72 0 -134 -45v-438h-134v572h63z" />
    <glyph glyph-name="o" unicode="o" horiz-adv-x="592" 
d="M296 89q74 0 100 50t26 147t-26 147t-100 50t-100 -50t-26 -147t26 -147t100 -50zM296 -14q-260 0 -260 300t260 300t260 -300t-260 -300z" />
    <glyph glyph-name="p" unicode="p" horiz-adv-x="628" 
d="M362 586q230 0 230 -300t-234 -300q-60 0 -130 20v-211l-134 -18v795h64l35 -43q85 57 169 57zM325 483q-51 0 -97 -28v-352q47 -14 96 -14q72 0 103 50.5t31 146.5q0 197 -133 197z" />
    <glyph glyph-name="q" unicode="q" horiz-adv-x="628" 
d="M269 586q94 0 170 -52l32 38h63v-777l-134 -18v235q-71 -26 -131 -26q-233 0 -233 300t233 300zM305 89q49 0 95 18v352q-44 24 -95 24q-135 0 -135 -197t135 -197z" />
    <glyph glyph-name="r" unicode="r" horiz-adv-x="407" 
d="M228 0h-134v572h63l53 -89q69 98 195 103v-115q-118 -3 -177 -72v-399z" />
    <glyph glyph-name="s" unicode="s" horiz-adv-x="546" 
d="M503 160q0 -171 -240 -171q-105 0 -156 45.5t-64 132.5l104 16q11 -96 119.5 -96t108.5 68q0 28 -21.5 42t-86.5 29l-46 11q-89 21 -127.5 61.5t-38.5 117.5q0 170 232 170q100 0 149.5 -45.5t61.5 -132.5l-104 -15q-11 95 -110.5 95t-99.5 -68q0 -28 19.5 -42.5
t79.5 -28.5l52 -13q89 -22 128.5 -61.5t39.5 -114.5z" />
    <glyph glyph-name="t" unicode="t" horiz-adv-x="360" 
d="M9 485v87h92v104l134 34v-138h109v-87h-109v-323q0 -43 12.5 -61t37 -18t53.5 8l17 -83q-59 -22 -105.5 -22t-74.5 11t-42 25.5t-21 39.5q-11 35 -11 87v336h-92z" />
    <glyph glyph-name="u" unicode="u" horiz-adv-x="664" 
d="M260 -14q-176 0 -176 182v404h134v-382q0 -52 20.5 -76.5t68.5 -24.5q68 0 129 64v419h134v-572h-87l-38 69q-78 -83 -185 -83z" />
    <glyph glyph-name="v" unicode="v" horiz-adv-x="545" 
d="M347 0h-149l-194 572h135l133 -414l134 414h135z" />
    <glyph glyph-name="w" unicode="w" horiz-adv-x="758" 
d="M282 0h-126l-147 572h135l84 -392l94 342h113l94 -342l85 392h135l-146 -572h-127l-97 346z" />
    <glyph glyph-name="x" unicode="x" horiz-adv-x="530" 
d="M137 0h-135l193 287l-184 285h147l112 -174l114 174h135l-182 -278l191 -294h-147l-120 184z" />
    <glyph glyph-name="y" unicode="y" horiz-adv-x="542" 
d="M251 -237l-119 18l81 211l-209 580h135l137 -398l124 398h137z" />
    <glyph glyph-name="z" unicode="z" horiz-adv-x="509" 
d="M43 478v94h424v-82l-274 -396h283v-94h-443v82l276 396h-266z" />
    <glyph glyph-name="braceleft" unicode="{" horiz-adv-x="329" 
d="M209 512l8 -108q0 -28 -14.5 -44.5t-34.5 -16.5v-5q20 0 34.5 -17t14.5 -44l-8 -113q0 -136 111 -136v-94q-131 0 -190 55.5t-59 147.5l8 113q0 24 -22 34t-45 10v82q23 0 45 10t22 34l-8 113q0 92 59 147.5t190 55.5v-94q-111 0 -111 -130z" />
    <glyph glyph-name="bar" unicode="|" horiz-adv-x="337" 
d="M96 -106v881h145v-881h-145z" />
    <glyph glyph-name="braceright" unicode="}" horiz-adv-x="329" 
d="M120 167l-7 115q0 28 14 45t34 17v5q-20 0 -34 17t-14 45l7 115q0 55 -25 85.5t-86 30.5v94q132 0 190.5 -55t58.5 -148l-8 -113q0 -24 21 -34t46 -10v-82q-25 0 -46 -10t-21 -34l8 -113q0 -93 -58.5 -148t-190.5 -55v94q111 0 111 139z" />
    <glyph glyph-name="asciitilde" unicode="~" 
d="M86 364q34 -24 80.5 -24t123 21.5t122 21.5t82.5 -19v-92q-38 21 -83 21t-121.5 -21.5t-121.5 -21.5t-82 22v92z" />
    <glyph glyph-name="nbspace" unicode="&#xa0;" horiz-adv-x="275" 
 />
    <glyph glyph-name="exclamdown" unicode="&#xa1;" horiz-adv-x="298" 
d="M100 573q17 13 48.5 13t48.5 -13t20 -27.5t3 -38t-3 -38t-20 -27.5t-44.5 -13t-43.5 6.5t-23 19.5q-10 21 -10 48.5t3.5 42t20.5 27.5zM223 -152h-147v182l34 339h79l34 -339v-182z" />
    <glyph glyph-name="cent" unicode="&#xa2;" horiz-adv-x="630" 
d="M376 -81h-90v121q-219 26 -219 320.5t219 327.5v122h90v-119q179 -16 195 -220l-106 -5q-2 54 -31.5 88t-80.5 34t-81.5 -17t-45.5 -51q-25 -58 -25 -155q0 -223 134.5 -223t137.5 107l106 -7q-15 -185 -203 -202v-121z" />
    <glyph glyph-name="sterling" unicode="&#xa3;" horiz-adv-x="630" 
d="M62 298v91h65v135q0 107 52.5 163.5t175.5 56.5t174.5 -55t51.5 -167l-118 -9q0 125 -102 125q-56 0 -77 -28.5t-21 -85.5v-135h210v-91h-210v-81q0 -42 -10.5 -66t-35.5 -45h375v-106h-525v83q60 40 60 112v103h-65z" />
    <glyph glyph-name="currency" unicode="&#xa4;" horiz-adv-x="630" 
d="M187 557q56 36 133 36t128 -31l85 85l64 -64l-86 -86q32 -55 32 -131.5t-33 -132.5l87 -86l-64 -64l-87 86q-54 -32 -132 -32t-129 35l-88 -89l-64 64l92 91q-28 53 -28 125.5t29 126.5l-93 93l64 64zM239 284.5q23 -32.5 78.5 -32.5t81 32.5t25.5 80.5t-23 80.5
t-78.5 32.5t-81 -32.5t-25.5 -80.5t23 -80.5z" />
    <glyph glyph-name="yen" unicode="&#xa5;" horiz-adv-x="630" 
d="M69 381v90h94l-132 259h138l146 -300l147 300h137l-132 -259h96v-90h-142l-37 -73h179v-91h-182v-217h-132v217h-180v91h177l-37 73h-140z" />
    <glyph glyph-name="brokenbar" unicode="&#xa6;" horiz-adv-x="337" 
d="M96 421v354h145v-354h-145zM96 -106v354h145v-354h-145z" />
    <glyph glyph-name="section" unicode="&#xa7;" horiz-adv-x="504" 
d="M480 217q0 -118 -126 -179q48 -64 48 -138.5t-58.5 -128.5t-161.5 -79l-31 97q46 10 81.5 34.5t35.5 57t-9 51.5t-36 51l-127 150q-72 85 -72 165q0 119 127 179q-49 68 -49 140.5t59 126.5t161 78l31 -96q-46 -10 -81.5 -34.5t-35.5 -57t7.5 -50.5t28.5 -42l133 -158
q75 -78 75 -167zM346 197q0 30 -8.5 49t-36.5 51l-82 96q-61 -30 -61 -76q0 -29 7.5 -47t28.5 -42l90 -108q62 29 62 77z" />
    <glyph glyph-name="dieresis" unicode="&#xa8;" horiz-adv-x="372" 
d="M76 643q-23 0 -37 6t-20 18q-10 20 -10 43t2 33.5t8 22.5q12 26 57 26q47 0 59 -26q10 -20 10 -43t-2 -33.5t-8 -22.5t-21 -18t-38 -6zM294 643q-23 0 -37 6t-20 18q-10 20 -10 43t2 33.5t8 22.5q12 26 57 26q47 0 59 -26q10 -20 10 -43t-2 -33.5t-8 -22.5t-21 -18
t-38 -6z" />
    <glyph glyph-name="copyright" unicode="&#xa9;" horiz-adv-x="735" 
d="M360 711q-81 0 -81 -150t82 -150q73 0 76 89l66 -3q-8 -145 -144 -145q-87 0 -121.5 52t-34.5 156t36 156.5t119 52.5q132 0 144 -127l-67 -5q-3 38 -20.5 56t-54.5 18zM131 324.5q-81 81.5 -81 236t81.5 236t236 81.5t236 -82t81.5 -236t-81.5 -235.5t-236.5 -81.5
t-236 81.5zM122 560.5q0 -250.5 245.5 -250.5t245.5 250.5t-245.5 250.5t-245.5 -250.5z" />
    <glyph glyph-name="ordfeminine" unicode="&#xaa;" horiz-adv-x="444" 
d="M221 760q161 0 161 -139v-271h-78l-35 39q-51 -49 -110.5 -49t-89.5 31t-30 83t32.5 84t122.5 45l67 9v28q0 49 -48.5 49t-56.5 -51l-93 28q15 58 52 86t106 28zM155 460q0 -33 36 -33t70 29v64l-42 -8q-64 -12 -64 -52zM32 204v77h357v-77h-357z" />
    <glyph glyph-name="guillemotleft" unicode="&#xab;" horiz-adv-x="536" 
d="M267 466l-114 -151l114 -151l-65 -64l-180 191v48l180 191zM498 466l-114 -151l114 -151l-65 -64l-180 191v48l180 191z" />
    <glyph glyph-name="logicalnot" unicode="&#xac;" 
d="M86 272v92h408v-230h-88v138h-320z" />
    <glyph glyph-name="registered" unicode="&#xae;" horiz-adv-x="735" 
d="M131 324.5q-81 81.5 -81 236t81.5 236t236 81.5t236 -82t81.5 -236t-81.5 -235.5t-236.5 -81.5t-236 81.5zM122 560.5q0 -250.5 245.5 -250.5t245.5 250.5t-245.5 250.5t-245.5 -250.5zM242 762h131q85 0 111 -42q21 -34 21 -77q0 -95 -65 -114q14 -13 24 -35l58 -134
h-80l-56 130q-11 27 -36 27h-32v-157h-76v402zM318 574h54q57 0 57 65t-57 65h-54v-130z" />
    <glyph glyph-name="macron" unicode="&#xaf;" horiz-adv-x="354" 
d="M42 670v97h270v-97h-270z" />
    <glyph glyph-name="degree" unicode="&#xb0;" horiz-adv-x="409" 
d="M204 431q43 0 55 21t12 73t-12 73.5t-55 21.5t-54.5 -21.5t-11.5 -73.5t11.5 -73t54.5 -21zM284.5 350.5q-33.5 -10.5 -86 -10.5t-90 14.5t-54.5 43.5t-22.5 57t-5.5 70t5.5 70.5t22.5 57t54.5 43t95.5 14.5t96 -14.5t55 -43t22.5 -57t5.5 -66t-3 -61t-13.5 -49.5
t-29.5 -42t-52.5 -26.5z" />
    <glyph glyph-name="plusminus" unicode="&#xb1;" 
d="M86 322v92h158v158h92v-158h158v-92h-158v-158h-92v158h-158zM86 0v92h408v-92h-408z" />
    <glyph glyph-name="twosuperior" unicode="&#xb2;" horiz-adv-x="387" 
d="M39 633q10 121 152 121q71 0 106.5 -33.5t35.5 -86.5t-61 -120l-79 -88h148v-86h-303v67l137 143q45 48 45 82t-39 34q-22 0 -32.5 -10t-11.5 -34z" />
    <glyph glyph-name="threesuperior" unicode="&#xb3;" horiz-adv-x="387" 
d="M136 464q3 -47 51 -47t48 42q0 48 -74 48h-9v67h10q70 0 70 53q0 17 -11 28t-31 11q-40 0 -45 -43l-99 12q4 65 40 92t108.5 27t110 -35t37.5 -93t-60 -84q66 -26 66 -92q0 -47 -43 -82.5t-115 -35.5t-110 27.5t-42 92.5z" />
    <glyph glyph-name="acute" unicode="&#xb4;" horiz-adv-x="298" 
d="M72 620l-45 72l195 133l60 -96z" />
    <glyph glyph-name="mu" unicode="&#xb5;" horiz-adv-x="625" 
d="M230 -227h-134v799h134v-443q62 -40 121 -40t79 24t20 77v382h134v-404q0 -182 -177 -182q-89 0 -177 46v-259z" />
    <glyph glyph-name="paragraph" unicode="&#xb6;" horiz-adv-x="513" 
d="M399 0h-136v269h-44q-102 0 -153.5 57.5t-51.5 142.5t51.5 143t153.5 58h180v-670z" />
    <glyph glyph-name="periodcentered" unicode="&#xb7;" horiz-adv-x="234" 
d="M156.5 263.5q-15.5 -6.5 -43.5 -6.5t-44.5 13t-20 27.5t-3.5 34.5t2 31.5t9 24.5q12 26 60 26q50 0 62 -26q11 -21 11 -45.5t-2 -35.5t-8.5 -24t-22 -19.5z" />
    <glyph glyph-name="cedilla" unicode="&#xb8;" horiz-adv-x="283" 
d="M26 -130h84q0 -37 32 -37q14 0 22 6.5t9.5 13.5t1.5 18q0 31 -36 37l-53 9l9 48h44q57 0 87.5 -20.5t30.5 -75.5t-25.5 -82.5t-90.5 -27.5q-115 0 -115 111z" />
    <glyph glyph-name="onesuperior" unicode="&#xb9;" horiz-adv-x="387" 
d="M67 649v66q69 7 102 30h95v-405h-115v309h-82z" />
    <glyph glyph-name="ordmasculine" unicode="&#xba;" horiz-adv-x="409" 
d="M26 204v77h357v-77h-357zM150.5 459q13.5 -28 54 -28t54 28t13.5 91t-13.5 91t-54 28t-54 -28t-13.5 -91t13.5 -91zM393 550q0 -210 -188.5 -210t-188.5 210t188.5 210t188.5 -210z" />
    <glyph glyph-name="guillemotright" unicode="&#xbb;" horiz-adv-x="536" 
d="M263 164l114 151l-114 151l65 64l180 -191v-48l-180 -191zM32 164l114 151l-114 151l65 64l180 -191v-48l-180 -191z" />
    <glyph glyph-name="onequarter" unicode="&#xbc;" horiz-adv-x="976" 
d="M865 0h-105v69h-193v78l131 258h167v-250h33v-86h-33v-69zM760 155v167l-83 -167h83zM72 635v66q69 7 102 30h95v-405h-115v309h-82zM320 -36l214 801h85l-215 -801h-84z" />
    <glyph glyph-name="onehalf" unicode="&#xbd;" horiz-adv-x="976" 
d="M318 -36l214 801h85l-215 -801h-84zM595 293q10 121 152 121q71 0 106.5 -33.5t35.5 -86.5t-61 -120l-79 -88h148v-86h-303v67l137 143q45 48 45 82t-39 34q-22 0 -32.5 -10t-11.5 -34zM72 635v66q69 7 102 30h95v-405h-115v309h-82z" />
    <glyph glyph-name="threequarters" unicode="&#xbe;" horiz-adv-x="976" 
d="M865 0h-105v69h-193v78l131 258h167v-250h33v-86h-33v-69zM760 155v167l-83 -167h83zM141 450q3 -47 51 -47t48 42q0 48 -74 48h-9v67h10q70 0 70 53q0 17 -11 28t-31 11q-40 0 -45 -43l-99 12q4 65 40 92t108.5 27t110 -35t37.5 -93t-60 -84q66 -26 66 -92
q0 -47 -43 -82.5t-115 -35.5t-110 27.5t-42 92.5zM340 -36l214 801h85l-215 -801h-84z" />
    <glyph glyph-name="questiondown" unicode="&#xbf;" horiz-adv-x="468" 
d="M228.5 579.5q15.5 6.5 43.5 6.5t44.5 -13t20 -27.5t3.5 -34.5t-2 -31.5t-8 -24.5q-14 -26 -61 -26q-49 0 -63 26q-10 21 -10 45.5t2 35.5t8.5 24t22 19.5zM395.5 -120.5q-54.5 -45.5 -156.5 -45.5t-161.5 61.5t-59.5 145t55.5 138t143.5 80.5l11 110h84l9 -156
q-91 -28 -130 -67.5t-39 -91.5t23.5 -85.5t71.5 -33.5q88 0 96 88l115 -16q-8 -82 -62.5 -127.5z" />
    <glyph glyph-name="Agrave" unicode="&#xc0;" horiz-adv-x="642" 
d="M233 730h177l224 -730h-131l-62 202h-240l-61 -202h-132zM321 601l-89 -296h178zM454 850l-45 -72l-210 109l60 96z" />
    <glyph glyph-name="Aacute" unicode="&#xc1;" horiz-adv-x="642" 
d="M233 730h177l224 -730h-131l-62 202h-240l-61 -202h-132zM321 601l-89 -296h178zM254 778l-45 72l195 133l60 -96z" />
    <glyph glyph-name="Acircumflex" unicode="&#xc2;" horiz-adv-x="642" 
d="M233 730h177l224 -730h-131l-62 202h-240l-61 -202h-132zM321 601l-89 -296h178zM221 784l-48 48l128 147h61l128 -147l-48 -48l-111 84z" />
    <glyph glyph-name="Atilde" unicode="&#xc3;" horiz-adv-x="642" 
d="M233 730h177l224 -730h-131l-62 202h-240l-61 -202h-132zM321 601l-89 -296h178zM465.5 846q-25.5 -27 -55.5 -27t-77 18t-62 18q-29 0 -42 -44l-75 24q17 63 42.5 90t55.5 27t77.5 -18t62.5 -18q29 0 42 44l74 -24q-17 -63 -42.5 -90z" />
    <glyph glyph-name="Adieresis" unicode="&#xc4;" horiz-adv-x="642" 
d="M233 730h177l224 -730h-131l-62 202h-240l-61 -202h-132zM321 601l-89 -296h178zM221 801q-23 0 -37 6t-20 18q-10 20 -10 43t2 33.5t8 22.5q12 26 57 26q47 0 59 -26q10 -20 10 -43t-2 -33.5t-8 -22.5t-21 -18t-38 -6zM439 801q-23 0 -37 6t-20 18q-10 20 -10 43t2 33.5
t8 22.5q12 26 57 26q47 0 59 -26q10 -20 10 -43t-2 -33.5t-8 -22.5t-21 -18t-38 -6z" />
    <glyph glyph-name="Aring" unicode="&#xc5;" horiz-adv-x="642" 
d="M233 730h177l224 -730h-131l-62 202h-240l-61 -202h-132zM321 601l-89 -296h178zM330 834q41 0 41 49t-41 49q-37 0 -37 -49t37 -49zM330 770q-111 0 -111 112.5t111 112.5q65 0 90 -33.5t25 -79.5t-25 -79t-90 -33z" />
    <glyph glyph-name="AE" unicode="&#xc6;" horiz-adv-x="935" 
d="M881 730v-105h-276v-222h251v-104h-251v-194h296v-105h-432v299h-203l-123 -299h-132l305 730h565zM469 625h-69l-92 -222h161v222z" />
    <glyph glyph-name="Ccedilla" unicode="&#xc7;" horiz-adv-x="626" 
d="M352 634q-94 0 -127 -61.5t-33 -207t33 -207.5t127 -62q73 0 103.5 40t32.5 116l110 -5q-8 -129 -61.5 -195t-184.5 -66q-171 0 -236 100q-33 50 -46.5 116.5t-13.5 162.5t13.5 162.5t46.5 116.5q65 100 236 100q123 0 177 -55t66 -162l-110 -17q-6 60 -37 92t-96 32z
M212 -130h84q0 -37 32 -37q14 0 22 6.5t9.5 13.5t1.5 18q0 31 -36 37l-53 9l9 48h44q57 0 87.5 -20.5t30.5 -75.5t-25.5 -82.5t-90.5 -27.5q-115 0 -115 111z" />
    <glyph glyph-name="Egrave" unicode="&#xc8;" horiz-adv-x="560" 
d="M94 730h412v-105h-276v-202h251v-104h-251v-214h296v-105h-432v730zM437 850l-45 -72l-210 109l60 96z" />
    <glyph glyph-name="Eacute" unicode="&#xc9;" horiz-adv-x="560" 
d="M94 730h412v-105h-276v-202h251v-104h-251v-214h296v-105h-432v730zM245 778l-45 72l195 133l60 -96z" />
    <glyph glyph-name="Ecircumflex" unicode="&#xca;" horiz-adv-x="560" 
d="M94 730h412v-105h-276v-202h251v-104h-251v-214h296v-105h-432v730zM204 784l-48 48l128 147h61l128 -147l-48 -48l-111 84z" />
    <glyph glyph-name="Edieresis" unicode="&#xcb;" horiz-adv-x="560" 
d="M94 730h412v-105h-276v-202h251v-104h-251v-214h296v-105h-432v730zM204 801q-23 0 -37 6t-20 18q-10 20 -10 43t2 33.5t8 22.5q12 26 57 26q47 0 59 -26q10 -20 10 -43t-2 -33.5t-8 -22.5t-21 -18t-38 -6zM422 801q-23 0 -37 6t-20 18q-10 20 -10 43t2 33.5t8 22.5
q12 26 57 26q47 0 59 -26q10 -20 10 -43t-2 -33.5t-8 -22.5t-21 -18t-38 -6z" />
    <glyph glyph-name="Igrave" unicode="&#xcc;" horiz-adv-x="324" 
d="M94 730h136v-730h-136v730zM285 850l-45 -72l-210 109l60 96z" />
    <glyph glyph-name="Iacute" unicode="&#xcd;" horiz-adv-x="324" 
d="M94 730h136v-730h-136v730zM105 778l-45 72l195 133l60 -96z" />
    <glyph glyph-name="Icircumflex" unicode="&#xce;" horiz-adv-x="324" 
d="M94 730h136v-730h-136v730zM52 784l-48 48l128 147h61l128 -147l-48 -48l-111 84z" />
    <glyph glyph-name="Idieresis" unicode="&#xcf;" horiz-adv-x="324" 
d="M94 730h136v-730h-136v730zM52 801q-23 0 -37 6t-20 18q-10 20 -10 43t2 33.5t8 22.5q12 26 57 26q47 0 59 -26q10 -20 10 -43t-2 -33.5t-8 -22.5t-21 -18t-38 -6zM270 801q-23 0 -37 6t-20 18q-10 20 -10 43t2 33.5t8 22.5q12 26 57 26q47 0 59 -26q10 -20 10 -43
t-2 -33.5t-8 -22.5t-21 -18t-38 -6z" />
    <glyph glyph-name="Eth" unicode="&#xd0;" horiz-adv-x="698" 
d="M52 316v92h42v322h243q177 0 240 -108q31 -52 43 -113t12 -135.5t-7 -125.5t-26.5 -99.5t-51.5 -79.5q-71 -69 -210 -69h-243v316h-42zM319 625h-89v-217h174v-92h-174v-211h89q107 0 145 77q32 67 32 183t-32 183q-38 77 -145 77z" />
    <glyph glyph-name="Ntilde" unicode="&#xd1;" horiz-adv-x="757" 
d="M527 730h136v-730h-144l-289 496v-496h-136v730h144l289 -497v497zM521.5 846q-25.5 -27 -55.5 -27t-77 18t-62 18q-29 0 -42 -44l-75 24q17 63 42.5 90t55.5 27t77.5 -18t62.5 -18q29 0 42 44l74 -24q-17 -63 -42.5 -90z" />
    <glyph glyph-name="Ograve" unicode="&#xd2;" horiz-adv-x="709" 
d="M502.5 14.5q-60.5 -28.5 -140 -28.5t-132.5 19.5t-86 52t-53 82.5q-35 88 -35 225q0 85 13 149t45 118q64 112 240 112q200 0 264 -155q35 -87 35 -224q0 -86 -13 -150t-45 -118t-92.5 -82.5zM354 96q91 0 127 71t36 198t-36 198t-127 71q-96 0 -131 -78
q-31 -71 -31 -191q0 -200 81 -249q33 -20 81 -20zM477 850l-45 -72l-210 109l60 96z" />
    <glyph glyph-name="Oacute" unicode="&#xd3;" horiz-adv-x="709" 
d="M502.5 14.5q-60.5 -28.5 -140 -28.5t-132.5 19.5t-86 52t-53 82.5q-35 88 -35 225q0 85 13 149t45 118q64 112 240 112q200 0 264 -155q35 -87 35 -224q0 -86 -13 -150t-45 -118t-92.5 -82.5zM354 96q91 0 127 71t36 198t-36 198t-127 71q-96 0 -131 -78
q-31 -71 -31 -191q0 -200 81 -249q33 -20 81 -20zM277 778l-45 72l195 133l60 -96z" />
    <glyph glyph-name="Ocircumflex" unicode="&#xd4;" horiz-adv-x="709" 
d="M502.5 14.5q-60.5 -28.5 -140 -28.5t-132.5 19.5t-86 52t-53 82.5q-35 88 -35 225q0 85 13 149t45 118q64 112 240 112q200 0 264 -155q35 -87 35 -224q0 -86 -13 -150t-45 -118t-92.5 -82.5zM354 96q91 0 127 71t36 198t-36 198t-127 71q-96 0 -131 -78
q-31 -71 -31 -191q0 -200 81 -249q33 -20 81 -20zM244 784l-48 48l128 147h61l128 -147l-48 -48l-111 84z" />
    <glyph glyph-name="Otilde" unicode="&#xd5;" horiz-adv-x="709" 
d="M502.5 14.5q-60.5 -28.5 -140 -28.5t-132.5 19.5t-86 52t-53 82.5q-35 88 -35 225q0 85 13 149t45 118q64 112 240 112q200 0 264 -155q35 -87 35 -224q0 -86 -13 -150t-45 -118t-92.5 -82.5zM354 96q91 0 127 71t36 198t-36 198t-127 71q-96 0 -131 -78
q-31 -71 -31 -191q0 -200 81 -249q33 -20 81 -20zM488.5 846q-25.5 -27 -55.5 -27t-77 18t-62 18q-29 0 -42 -44l-75 24q17 63 42.5 90t55.5 27t77.5 -18t62.5 -18q29 0 42 44l74 -24q-17 -63 -42.5 -90z" />
    <glyph glyph-name="Odieresis" unicode="&#xd6;" horiz-adv-x="709" 
d="M502.5 14.5q-60.5 -28.5 -140 -28.5t-132.5 19.5t-86 52t-53 82.5q-35 88 -35 225q0 85 13 149t45 118q64 112 240 112q200 0 264 -155q35 -87 35 -224q0 -86 -13 -150t-45 -118t-92.5 -82.5zM354 96q91 0 127 71t36 198t-36 198t-127 71q-96 0 -131 -78
q-31 -71 -31 -191q0 -200 81 -249q33 -20 81 -20zM244 801q-23 0 -37 6t-20 18q-10 20 -10 43t2 33.5t8 22.5q12 26 57 26q47 0 59 -26q10 -20 10 -43t-2 -33.5t-8 -22.5t-21 -18t-38 -6zM462 801q-23 0 -37 6t-20 18q-10 20 -10 43t2 33.5t8 22.5q12 26 57 26q47 0 59 -26
q10 -20 10 -43t-2 -33.5t-8 -22.5t-21 -18t-38 -6z" />
    <glyph glyph-name="multiply" unicode="&#xd7;" 
d="M161 123l-66 66l130 129l-130 129l66 66l129 -130l129 130l66 -66l-130 -129l130 -129l-66 -66l-129 130z" />
    <glyph glyph-name="Oslash" unicode="&#xd8;" horiz-adv-x="709" 
d="M56 374q0 76 13 140t45 118q64 112 240 112q17 0 45 -2l20 85h85l-24 -103q95 -36 134 -128t39 -231q0 -86 -13 -150t-45 -118q-66 -111 -241 -111q-25 0 -46 3l-19 -83h-84l23 99q-99 36 -138 135q-34 91 -34 234zM354 96q91 0 127 71t36 198q0 177 -66 235l-118 -503
q7 -1 21 -1zM374 633l-20 1q-96 0 -131 -78q-31 -71 -31 -191q0 -178 64 -236z" />
    <glyph glyph-name="Ugrave" unicode="&#xd9;" horiz-adv-x="703" 
d="M488 730h136v-489q0 -67 -17 -115t-42 -74.5t-64 -42t-72.5 -19.5t-77.5 -4t-77.5 4t-72.5 19.5t-63.5 42t-41.5 74.5t-17 115v489h136v-479q0 -93 36 -123.5t100 -30.5q31 0 52 5t42 20q43 31 43 129v479zM448 850l-45 -72l-210 109l60 96z" />
    <glyph glyph-name="Uacute" unicode="&#xda;" horiz-adv-x="703" 
d="M488 730h136v-489q0 -67 -17 -115t-42 -74.5t-64 -42t-72.5 -19.5t-77.5 -4t-77.5 4t-72.5 19.5t-63.5 42t-41.5 74.5t-17 115v489h136v-479q0 -93 36 -123.5t100 -30.5q31 0 52 5t42 20q43 31 43 129v479zM328 778l-45 72l195 133l60 -96z" />
    <glyph glyph-name="Ucircumflex" unicode="&#xdb;" horiz-adv-x="703" 
d="M488 730h136v-489q0 -67 -17 -115t-42 -74.5t-64 -42t-72.5 -19.5t-77.5 -4t-77.5 4t-72.5 19.5t-63.5 42t-41.5 74.5t-17 115v489h136v-479q0 -93 36 -123.5t100 -30.5q31 0 52 5t42 20q43 31 43 129v479zM244 784l-48 48l128 147h61l128 -147l-48 -48l-111 84z" />
    <glyph glyph-name="Udieresis" unicode="&#xdc;" horiz-adv-x="703" 
d="M488 730h136v-489q0 -67 -17 -115t-42 -74.5t-64 -42t-72.5 -19.5t-77.5 -4t-77.5 4t-72.5 19.5t-63.5 42t-41.5 74.5t-17 115v489h136v-479q0 -93 36 -123.5t100 -30.5q31 0 52 5t42 20q43 31 43 129v479zM245 801q-23 0 -37 6t-20 18q-10 20 -10 43t2 33.5t8 22.5
q12 26 57 26q47 0 59 -26q10 -20 10 -43t-2 -33.5t-8 -22.5t-21 -18t-38 -6zM463 801q-23 0 -37 6t-20 18q-10 20 -10 43t2 33.5t8 22.5q12 26 57 26q47 0 59 -26q10 -20 10 -43t-2 -33.5t-8 -22.5t-21 -18t-38 -6z" />
    <glyph glyph-name="Yacute" unicode="&#xdd;" horiz-adv-x="574" 
d="M355 0h-136v254l-225 476h136l157 -349l157 349h136l-225 -476v-254zM225 778l-45 72l195 133l60 -96z" />
    <glyph glyph-name="Thorn" unicode="&#xde;" horiz-adv-x="587" 
d="M342 137h-112v-137h-136v730h136v-138h112q123 0 175 -63.5t52 -164t-52 -164t-175 -63.5zM230 247h90q63 0 88 31t25 86.5t-25 86.5t-88 31h-90v-235z" />
    <glyph glyph-name="germandbls" unicode="&#xdf;" horiz-adv-x="660" 
d="M607 320q39 -50 39 -135t-48.5 -142t-144 -57t-137.5 49t-42 160h109q0 -57 13.5 -80t49.5 -23q66 0 66 115q0 59 -24 84.5t-79 25.5h-101v99h52q43 0 64 31t21 81q0 112 -106 112q-101 0 -101 -112v-528h-134v528q0 218 246 218q111 0 170 -55t59 -148.5t-83 -157.5
q72 -15 111 -65z" />
    <glyph glyph-name="agrave" unicode="&#xe0;" horiz-adv-x="597" 
d="M295 586q218 0 218 -199v-387h-87l-38 70q-80 -84 -187 -84q-76 0 -115.5 42.5t-39.5 114t45 115.5t168 62l120 18v48q0 97 -92 97q-87 0 -103 -88l-104 31q38 160 215 160zM244 84q68 0 135 67v103l-96 -17q-65 -11 -86 -35t-21 -54t18 -47t50 -17zM412 692l-45 -72
l-210 109l60 96z" />
    <glyph glyph-name="aacute" unicode="&#xe1;" horiz-adv-x="597" 
d="M295 586q218 0 218 -199v-387h-87l-38 70q-80 -84 -187 -84q-76 0 -115.5 42.5t-39.5 114t45 115.5t168 62l120 18v48q0 97 -92 97q-87 0 -103 -88l-104 31q38 160 215 160zM244 84q68 0 135 67v103l-96 -17q-65 -11 -86 -35t-21 -54t18 -47t50 -17zM258 620l-45 72
l195 133l60 -96z" />
    <glyph glyph-name="acircumflex" unicode="&#xe2;" horiz-adv-x="597" 
d="M295 586q218 0 218 -199v-387h-87l-38 70q-80 -84 -187 -84q-76 0 -115.5 42.5t-39.5 114t45 115.5t168 62l120 18v48q0 97 -92 97q-87 0 -103 -88l-104 31q38 160 215 160zM244 84q68 0 135 67v103l-96 -17q-65 -11 -86 -35t-21 -54t18 -47t50 -17zM179 626l-48 48
l128 147h61l128 -147l-48 -48l-111 84z" />
    <glyph glyph-name="atilde" unicode="&#xe3;" horiz-adv-x="597" 
d="M295 586q218 0 218 -199v-387h-87l-38 70q-80 -84 -187 -84q-76 0 -115.5 42.5t-39.5 114t45 115.5t168 62l120 18v48q0 97 -92 97q-87 0 -103 -88l-104 31q38 160 215 160zM244 84q68 0 135 67v103l-96 -17q-65 -11 -86 -35t-21 -54t18 -47t50 -17zM423.5 688
q-25.5 -27 -55.5 -27t-77 18t-62 18q-29 0 -42 -44l-75 24q17 63 42.5 90t55.5 27t77.5 -18t62.5 -18q29 0 42 44l74 -24q-17 -63 -42.5 -90z" />
    <glyph glyph-name="adieresis" unicode="&#xe4;" horiz-adv-x="597" 
d="M295 586q218 0 218 -199v-387h-87l-38 70q-80 -84 -187 -84q-76 0 -115.5 42.5t-39.5 114t45 115.5t168 62l120 18v48q0 97 -92 97q-87 0 -103 -88l-104 31q38 160 215 160zM244 84q68 0 135 67v103l-96 -17q-65 -11 -86 -35t-21 -54t18 -47t50 -17zM196 643q-23 0 -37 6
t-20 18q-10 20 -10 43t2 33.5t8 22.5q12 26 57 26q47 0 59 -26q10 -20 10 -43t-2 -33.5t-8 -22.5t-21 -18t-38 -6zM414 643q-23 0 -37 6t-20 18q-10 20 -10 43t2 33.5t8 22.5q12 26 57 26q47 0 59 -26q10 -20 10 -43t-2 -33.5t-8 -22.5t-21 -18t-38 -6z" />
    <glyph glyph-name="aring" unicode="&#xe5;" horiz-adv-x="597" 
d="M295 586q218 0 218 -199v-387h-87l-38 70q-80 -84 -187 -84q-76 0 -115.5 42.5t-39.5 114t45 115.5t168 62l120 18v48q0 97 -92 97q-87 0 -103 -88l-104 31q38 160 215 160zM244 84q68 0 135 67v103l-96 -17q-65 -11 -86 -35t-21 -54t18 -47t50 -17zM308 676q41 0 41 49
t-41 49q-37 0 -37 -49t37 -49zM308 612q-111 0 -111 112.5t111 112.5q65 0 90 -33.5t25 -79.5t-25 -79t-90 -33z" />
    <glyph glyph-name="ae" unicode="&#xe6;" horiz-adv-x="902" 
d="M631 -14q-157 0 -214 98q-98 -98 -220 -98q-74 0 -113 42.5t-39 113.5t44 115.5t166 64.5l116 19v45q0 97 -87 97t-103 -88l-105 28q38 163 215 163q112 0 166 -55q61 55 170 55q145 0 199 -90q45 -77 45 -200v-36h-366q1 -94 31 -132.5t99 -38.5q111 0 118 80l110 -4
q-16 -179 -232 -179zM240 81q83 0 149 68q-13 59 -14 101l-96 -18q-64 -12 -84.5 -35t-20.5 -52.5t17.5 -46.5t48.5 -17zM626 483q-57 0 -83.5 -31.5t-34.5 -100.5h231q-6 67 -31 99.5t-82 32.5z" />
    <glyph glyph-name="ccedilla" unicode="&#xe7;" horiz-adv-x="536" 
d="M170 286q0 -101 25.5 -149t89 -48t91 26t29.5 82l105 -5q-6 -102 -59.5 -154t-175.5 -52q-143 0 -195 93q-25 45 -34.5 94t-9.5 113.5t9.5 114t34.5 93.5q51 92 195 92q121 0 174 -49.5t60 -147.5l-104 -14q-2 56 -29.5 82t-91 26t-89 -48t-25.5 -149zM149 -130h84
q0 -37 32 -37q14 0 22 6.5t9.5 13.5t1.5 18q0 31 -36 37l-53 9l9 48h44q57 0 87.5 -20.5t30.5 -75.5t-25.5 -82.5t-90.5 -27.5q-115 0 -115 111z" />
    <glyph glyph-name="egrave" unicode="&#xe8;" horiz-adv-x="563" 
d="M292 -14q-138 0 -197 74.5t-59 225.5q0 300 252 300q145 0 198 -90q46 -77 46 -200v-36h-366q1 -94 31 -132.5t99 -38.5q111 0 118 80l110 -4q-16 -179 -232 -179zM287 483q-57 0 -83.5 -31.5t-34.5 -100.5h231q-6 67 -31 99.5t-82 32.5zM408 692l-45 -72l-210 109l60 96
z" />
    <glyph glyph-name="eacute" unicode="&#xe9;" horiz-adv-x="563" 
d="M292 -14q-138 0 -197 74.5t-59 225.5q0 300 252 300q145 0 198 -90q46 -77 46 -200v-36h-366q1 -94 31 -132.5t99 -38.5q111 0 118 80l110 -4q-16 -179 -232 -179zM287 483q-57 0 -83.5 -31.5t-34.5 -100.5h231q-6 67 -31 99.5t-82 32.5zM246 620l-45 72l195 133l60 -96z
" />
    <glyph glyph-name="ecircumflex" unicode="&#xea;" horiz-adv-x="563" 
d="M292 -14q-138 0 -197 74.5t-59 225.5q0 300 252 300q145 0 198 -90q46 -77 46 -200v-36h-366q1 -94 31 -132.5t99 -38.5q111 0 118 80l110 -4q-16 -179 -232 -179zM287 483q-57 0 -83.5 -31.5t-34.5 -100.5h231q-6 67 -31 99.5t-82 32.5zM175 626l-48 48l128 147h61
l128 -147l-48 -48l-111 84z" />
    <glyph glyph-name="edieresis" unicode="&#xeb;" horiz-adv-x="561" 
d="M290 -14q-138 0 -197 74.5t-59 225.5q0 300 252 300q145 0 198 -90q46 -77 46 -200v-36h-366q1 -94 31 -132.5t99 -38.5q111 0 118 80l110 -4q-16 -179 -232 -179zM285 483q-57 0 -83.5 -31.5t-34.5 -100.5h231q-6 67 -31 99.5t-82 32.5zM173 643q-23 0 -37 6t-20 18
q-10 20 -10 43t2 33.5t8 22.5q12 26 57 26q47 0 59 -26q10 -20 10 -43t-2 -33.5t-8 -22.5t-21 -18t-38 -6zM391 643q-23 0 -37 6t-20 18q-10 20 -10 43t2 33.5t8 22.5q12 26 57 26q47 0 59 -26q10 -20 10 -43t-2 -33.5t-8 -22.5t-21 -18t-38 -6z" />
    <glyph glyph-name="igrave" unicode="&#xec;" horiz-adv-x="322" 
d="M94 572h134v-572h-134v572zM274 692l-45 -72l-210 109l60 96z" />
    <glyph glyph-name="iacute" unicode="&#xed;" horiz-adv-x="322" 
d="M94 572h134v-572h-134v572zM99 620l-45 72l195 133l60 -96z" />
    <glyph glyph-name="icircumflex" unicode="&#xee;" horiz-adv-x="322" 
d="M94 572h134v-572h-134v572zM41 626l-48 48l128 147h61l128 -147l-48 -48l-111 84z" />
    <glyph glyph-name="idieresis" unicode="&#xef;" horiz-adv-x="322" 
d="M94 572h134v-572h-134v572zM51 643q-23 0 -37 6t-20 18q-10 20 -10 43t2 33.5t8 22.5q12 26 57 26q47 0 59 -26q10 -20 10 -43t-2 -33.5t-8 -22.5t-21 -18t-38 -6zM269 643q-23 0 -37 6t-20 18q-10 20 -10 43t2 33.5t8 22.5q12 26 57 26q47 0 59 -26q10 -20 10 -43
t-2 -33.5t-8 -22.5t-21 -18t-38 -6z" />
    <glyph glyph-name="eth" unicode="&#xf0;" horiz-adv-x="592" 
d="M556 267v-21q0 -194 -152 -244q-47 -16 -108 -16t-108 15.5t-75 40.5t-46 60q-31 60 -31 144q0 101 50 174q27 40 81 63t119.5 23t113.5 -34q-18 58 -51 111l-97 -39v87l47 19l-37 39l63 75q42 -36 75 -74l134 53v-87l-84 -33q106 -160 106 -356zM296 85q126 0 126 161
t-126 161t-126 -161t126 -161z" />
    <glyph glyph-name="ntilde" unicode="&#xf1;" horiz-adv-x="663" 
d="M200 520q94 66 192.5 66t142.5 -48.5t44 -133.5v-404h-134v390q0 51 -18.5 72t-64.5 21q-72 0 -134 -45v-438h-134v572h63zM485.5 688q-25.5 -27 -55.5 -27t-77 18t-62 18q-29 0 -42 -44l-75 24q17 63 42.5 90t55.5 27t77.5 -18t62.5 -18q29 0 42 44l74 -24
q-17 -63 -42.5 -90z" />
    <glyph glyph-name="ograve" unicode="&#xf2;" horiz-adv-x="592" 
d="M296 89q74 0 100 50t26 147t-26 147t-100 50t-100 -50t-26 -147t26 -147t100 -50zM296 -14q-260 0 -260 300t260 300t260 -300t-260 -300zM419 692l-45 -72l-210 109l60 96z" />
    <glyph glyph-name="oacute" unicode="&#xf3;" horiz-adv-x="592" 
d="M296 89q74 0 100 50t26 147t-26 147t-100 50t-100 -50t-26 -147t26 -147t100 -50zM296 -14q-260 0 -260 300t260 300t260 -300t-260 -300zM256 620l-45 72l195 133l60 -96z" />
    <glyph glyph-name="ocircumflex" unicode="&#xf4;" horiz-adv-x="592" 
d="M296 89q74 0 100 50t26 147t-26 147t-100 50t-100 -50t-26 -147t26 -147t100 -50zM296 -14q-260 0 -260 300t260 300t260 -300t-260 -300zM185 626l-48 48l128 147h61l128 -147l-48 -48l-111 84z" />
    <glyph glyph-name="otilde" unicode="&#xf5;" horiz-adv-x="592" 
d="M296 89q74 0 100 50t26 147t-26 147t-100 50t-100 -50t-26 -147t26 -147t100 -50zM296 -14q-260 0 -260 300t260 300t260 -300t-260 -300zM430.5 688q-25.5 -27 -55.5 -27t-77 18t-62 18q-29 0 -42 -44l-75 24q17 63 42.5 90t55.5 27t77.5 -18t62.5 -18q29 0 42 44
l74 -24q-17 -63 -42.5 -90z" />
    <glyph glyph-name="odieresis" unicode="&#xf6;" horiz-adv-x="592" 
d="M296 89q74 0 100 50t26 147t-26 147t-100 50t-100 -50t-26 -147t26 -147t100 -50zM296 -14q-260 0 -260 300t260 300t260 -300t-260 -300zM186 643q-23 0 -37 6t-20 18q-10 20 -10 43t2 33.5t8 22.5q12 26 57 26q47 0 59 -26q10 -20 10 -43t-2 -33.5t-8 -22.5t-21 -18
t-38 -6zM404 643q-23 0 -37 6t-20 18q-10 20 -10 43t2 33.5t8 22.5q12 26 57 26q47 0 59 -26q10 -20 10 -43t-2 -33.5t-8 -22.5t-21 -18t-38 -6z" />
    <glyph glyph-name="divide" unicode="&#xf7;" 
d="M86 272v92h408v-92h-408zM325 65.5q-14 -6.5 -35.5 -6.5t-35 6.5t-19.5 18.5t-7.5 22.5t-1.5 26.5t1.5 27t7.5 23q13 25 54 25q44 0 55 -25q10 -21 10 -43.5t-2 -33t-7.5 -22.5t-19.5 -18.5zM325 424.5q-14 -6.5 -35.5 -6.5t-35 6.5t-19.5 18.5t-7.5 22.5t-1.5 26.5
t1.5 27t7.5 23q13 25 54 25q44 0 55 -25q10 -21 10 -43.5t-2 -33t-7.5 -22.5t-19.5 -18.5z" />
    <glyph glyph-name="oslash" unicode="&#xf8;" horiz-adv-x="592" 
d="M36 286q0 300 260 300q13 0 37 -2l28 102h85l-32 -120q142 -57 142 -280q0 -300 -260 -300q-14 0 -38 2l-27 -103h-84l32 120q-143 57 -143 281zM196 433q-26 -50 -26 -160.5t40 -152.5l96 363h-10q-74 0 -100 -50zM296 89q74 0 100 50t26 159t-39 152l-97 -361h10z" />
    <glyph glyph-name="ugrave" unicode="&#xf9;" horiz-adv-x="664" 
d="M260 -14q-176 0 -176 182v404h134v-382q0 -52 20.5 -76.5t68.5 -24.5q68 0 129 64v419h134v-572h-87l-38 69q-78 -83 -185 -83zM428 692l-45 -72l-210 109l60 96z" />
    <glyph glyph-name="uacute" unicode="&#xfa;" horiz-adv-x="664" 
d="M260 -14q-176 0 -176 182v404h134v-382q0 -52 20.5 -76.5t68.5 -24.5q68 0 129 64v419h134v-572h-87l-38 69q-78 -83 -185 -83zM299 620l-45 72l195 133l60 -96z" />
    <glyph glyph-name="ucircumflex" unicode="&#xfb;" horiz-adv-x="664" 
d="M260 -14q-176 0 -176 182v404h134v-382q0 -52 20.5 -76.5t68.5 -24.5q68 0 129 64v419h134v-572h-87l-38 69q-78 -83 -185 -83zM225 626l-48 48l128 147h61l128 -147l-48 -48l-111 84z" />
    <glyph glyph-name="udieresis" unicode="&#xfc;" horiz-adv-x="664" 
d="M260 -14q-176 0 -176 182v404h134v-382q0 -52 20.5 -76.5t68.5 -24.5q68 0 129 64v419h134v-572h-87l-38 69q-78 -83 -185 -83zM225 643q-23 0 -37 6t-20 18q-10 20 -10 43t2 33.5t8 22.5q12 26 57 26q47 0 59 -26q10 -20 10 -43t-2 -33.5t-8 -22.5t-21 -18t-38 -6z
M443 643q-23 0 -37 6t-20 18q-10 20 -10 43t2 33.5t8 22.5q12 26 57 26q47 0 59 -26q10 -20 10 -43t-2 -33.5t-8 -22.5t-21 -18t-38 -6z" />
    <glyph glyph-name="yacute" unicode="&#xfd;" horiz-adv-x="542" 
d="M251 -237l-119 18l81 211l-209 580h135l137 -398l124 398h137zM222 620l-45 72l195 133l60 -96z" />
    <glyph glyph-name="thorn" unicode="&#xfe;" horiz-adv-x="634" 
d="M370 586q228 0 228 -300t-229 -300q-66 0 -141 25v-216h-134v935l134 12v-200q70 44 142 44zM336 482q-57 0 -108 -39v-334q54 -19 116 -19q120 0 120 196t-128 196z" />
    <glyph glyph-name="ydieresis" unicode="&#xff;" horiz-adv-x="542" 
d="M251 -237l-119 18l81 211l-209 580h135l137 -398l124 398h137zM184 643q-23 0 -37 6t-20 18q-10 20 -10 43t2 33.5t8 22.5q12 26 57 26q47 0 59 -26q10 -20 10 -43t-2 -33.5t-8 -22.5t-21 -18t-38 -6zM402 643q-23 0 -37 6t-20 18q-10 20 -10 43t2 33.5t8 22.5
q12 26 57 26q47 0 59 -26q10 -20 10 -43t-2 -33.5t-8 -22.5t-21 -18t-38 -6z" />
    <glyph glyph-name="dotlessi" unicode="&#x131;" horiz-adv-x="322" 
d="M94 572h134v-572h-134v572z" />
    <glyph glyph-name="Lslash" unicode="&#x141;" horiz-adv-x="483" 
d="M94 730h136v-281l75 30v-87l-75 -30v-257h249v-105h-385v308l-71 -28v87l71 28v335z" />
    <glyph glyph-name="lslash" unicode="&#x142;" horiz-adv-x="322" 
d="M228 0h-134v309l-74 -29v87l74 29v356l134 18v-321l74 30v-87l-74 -30v-362z" />
    <glyph glyph-name="OE" unicode="&#x152;" horiz-adv-x="949" 
d="M349 0q-173 0 -236 104q-57 95 -57 261q0 84 13 146t44 113q64 106 236 106h546v-105h-309q47 -71 55 -202h229v-104h-228q-7 -141 -56 -214h329v-105h-566zM349 109q89 0 123.5 66.5t34.5 189.5t-34.5 189.5t-123.5 66.5t-123 -66.5t-34 -189.5t34 -189.5t123 -66.5z
" />
    <glyph glyph-name="oe" unicode="&#x153;" horiz-adv-x="953" 
d="M682 -14q-135 0 -194 73q-63 -73 -192 -73q-260 0 -260 300t260 300q130 0 194 -75q62 75 188 75q145 0 198 -90q46 -77 46 -200v-36h-366q2 -94 31.5 -132.5t98.5 -38.5q111 0 118 80l110 -4q-16 -179 -232 -179zM422 287.5q0 94.5 -25.5 145t-100 50.5t-100.5 -50
t-26 -147t26 -147t101.5 -50t100 52t24.5 146.5zM759 450.5q-25 32.5 -81.5 32.5t-83.5 -32t-34 -100h230q-6 67 -31 99.5z" />
    <glyph glyph-name="Scaron" unicode="&#x160;" horiz-adv-x="603" 
d="M515 341q44 -48 44 -144t-66 -153.5t-194 -57.5t-185 54.5t-70 158.5l109 17q6 -59 40.5 -91.5t96.5 -32.5q133 0 133 101q0 43 -25 65t-96 40l-57 14q-100 25 -143 74t-43 146.5t63 154.5t186.5 57t178 -54.5t67.5 -158.5l-108 -17q-13 124 -128 124q-63 0 -93 -27.5
t-30 -72.5t23 -67t88 -39l63 -17q102 -26 146 -74zM421 983l48 -48l-128 -147h-61l-128 147l48 48l111 -84z" />
    <glyph glyph-name="scaron" unicode="&#x161;" horiz-adv-x="548" 
d="M504 160q0 -171 -240 -171q-105 0 -156 45.5t-64 132.5l104 16q11 -96 119.5 -96t108.5 68q0 28 -21.5 42t-86.5 29l-46 11q-89 21 -127.5 61.5t-38.5 117.5q0 170 232 170q100 0 149.5 -45.5t61.5 -132.5l-104 -15q-11 95 -110.5 95t-99.5 -68q0 -28 19.5 -42.5
t79.5 -28.5l52 -13q89 -22 128.5 -61.5t39.5 -114.5zM397 825l48 -48l-128 -147h-61l-128 147l48 48l111 -84z" />
    <glyph glyph-name="Ydieresis" unicode="&#x178;" horiz-adv-x="574" 
d="M355 0h-136v254l-225 476h136l157 -349l157 349h136l-225 -476v-254zM177 801q-23 0 -37 6t-20 18q-10 20 -10 43t2 33.5t8 22.5q12 26 57 26q47 0 59 -26q10 -20 10 -43t-2 -33.5t-8 -22.5t-21 -18t-38 -6zM395 801q-23 0 -37 6t-20 18q-10 20 -10 43t2 33.5t8 22.5
q12 26 57 26q47 0 59 -26q10 -20 10 -43t-2 -33.5t-8 -22.5t-21 -18t-38 -6z" />
    <glyph glyph-name="Zcaron" unicode="&#x17d;" horiz-adv-x="562" 
d="M42 625v105h488v-86l-345 -539h355v-105h-518v86l345 539h-325zM401 983l48 -48l-128 -147h-61l-128 147l48 48l111 -84z" />
    <glyph glyph-name="zcaron" unicode="&#x17e;" horiz-adv-x="509" 
d="M43 478v94h424v-82l-274 -396h283v-94h-443v82l276 396h-266zM389 825l48 -48l-128 -147h-61l-128 147l48 48l111 -84z" />
    <glyph glyph-name="florin" unicode="&#x192;" horiz-adv-x="630" 
d="M449 638q-93 0 -93 -123v-126h157v-90h-157v-279q0 -66 -9.5 -108t-36 -73t-74.5 -44t-123 -13l-9 117q71 0 93.5 25.5t22.5 97.5v277h-107v90h107v126q0 116 51 172.5t161 56.5q82 0 141 -37l-38 -94q-39 25 -86 25z" />
    <glyph glyph-name="circumflex" unicode="&#x2c6;" horiz-adv-x="385" 
d="M82 626l-48 48l128 147h61l128 -147l-48 -48l-111 84z" />
    <glyph glyph-name="caron" unicode="&#x2c7;" horiz-adv-x="355" 
d="M288 825l48 -48l-128 -147h-61l-128 147l48 48l111 -84z" />
    <glyph glyph-name="breve" unicode="&#x2d8;" horiz-adv-x="409" 
d="M268 787h74q0 -64 -22 -103q-28 -48 -116 -48q-87 0 -114 48q-23 39 -23 103h73q0 -35 12.5 -52.5t51.5 -17.5t51.5 17.5t12.5 52.5z" />
    <glyph glyph-name="dotaccent" unicode="&#x2d9;" horiz-adv-x="258" 
d="M188 651q-18 -15 -51.5 -15t-51 15t-21 31.5t-3.5 42.5t3.5 43t21 32t51 15t51.5 -15t21.5 -32t3.5 -43t-3.5 -42.5t-21.5 -31.5z" />
    <glyph glyph-name="ring" unicode="&#x2da;" horiz-adv-x="258" 
d="M127 676q41 0 41 49t-41 49q-37 0 -37 -49t37 -49zM127 612q-111 0 -111 112.5t111 112.5q65 0 90 -33.5t25 -79.5t-25 -79t-90 -33z" />
    <glyph glyph-name="ogonek" unicode="&#x2db;" horiz-adv-x="316" 
d="M141 -232q-57 0 -86 25.5t-29 70t25 71.5t81 62l86 52l29 -43l-85 -53q-33 -20 -45 -35.5t-12 -34.5q0 -44 45.5 -44t79.5 59l53 -35q-52 -95 -142 -95z" />
    <glyph glyph-name="tilde" unicode="&#x2dc;" horiz-adv-x="394" 
d="M331.5 688q-25.5 -27 -55.5 -27t-77 18t-62 18q-29 0 -42 -44l-75 24q17 63 42.5 90t55.5 27t77.5 -18t62.5 -18q29 0 42 44l74 -24q-17 -63 -42.5 -90z" />
    <glyph glyph-name="hungarumlaut" unicode="&#x2dd;" horiz-adv-x="532" 
d="M47 620l-45 72l195 133l60 -96zM320 620l-45 72l195 133l60 -96z" />
    <glyph glyph-name="pi" unicode="&#x3c0;" horiz-adv-x="652" 
d="M46 485v87h560v-87h-61v-485h-134v485h-171v-485h-134v485h-60z" />
    <glyph glyph-name="endash" unicode="&#x2013;" horiz-adv-x="564" 
d="M62 272v92h440v-92h-440z" />
    <glyph glyph-name="emdash" unicode="&#x2014;" horiz-adv-x="897" 
d="M62 272v92h773v-92h-773z" />
    <glyph glyph-name="quoteleft" unicode="&#x2018;" horiz-adv-x="274" 
d="M182 622q10 -30 10 -51t-2 -32.5t-8 -24.5q-11 -25 -55 -25q-71 0 -71 78q0 122 127 216l35 -41q-46 -34 -46 -79q0 -11 10 -41z" />
    <glyph glyph-name="quoteright" unicode="&#x2019;" horiz-adv-x="250" 
d="M92 649.5q-10 29.5 -10 51t2 33t8 24.5q11 25 55 25q71 0 71 -78q0 -122 -127 -216l-35 40q46 34 46 79q0 12 -10 41.5z" />
    <glyph glyph-name="quotesinglbase" unicode="&#x201a;" horiz-adv-x="226" 
d="M55 24.5q-10 29.5 -10 47.5t2 29t8 23q13 25 50 25t53.5 -12.5t19.5 -26.5t3 -36q0 -111 -127 -212l-35 41q46 44 46 79q0 13 -10 42.5z" />
    <glyph glyph-name="quotedblleft" unicode="&#x201c;" horiz-adv-x="455" 
d="M182 622q10 -30 10 -54t-3.5 -39t-19 -27.5t-50.5 -12.5t-49 21.5t-14 56.5q0 122 127 216l35 -41q-46 -41 -46 -79q0 -11 10 -41zM363 622q10 -30 10 -51t-2 -32.5t-7 -24.5q-12 -25 -56 -25q-71 0 -71 78q0 122 127 216l35 -41q-46 -34 -46 -79q0 -11 10 -41z" />
    <glyph glyph-name="quotedblright" unicode="&#x201d;" horiz-adv-x="455" 
d="M273 649.5q-10 29.5 -10 54t3.5 39.5t19 27.5t50.5 12.5t49 -21.5t14 -56.5q0 -122 -127 -216l-35 40q46 41 46 79q0 12 -10 41.5zM92 649.5q-10 29.5 -10 51t2 33t8 24.5q11 25 55 25q71 0 71 -78q0 -122 -127 -216l-35 40q46 34 46 79q0 12 -10 41.5z" />
    <glyph glyph-name="quotedblbase" unicode="&#x201e;" horiz-adv-x="407" 
d="M236 22.5q-10 29.5 -10 54t3.5 39.5t19 27.5t50.5 12.5t49 -21.5t14 -56.5q0 -122 -127 -216l-35 40q46 41 46 79q0 12 -10 41.5zM55 22.5q-10 29.5 -10 51t2 33t7 23.5q12 26 56 26q71 0 71 -78q0 -122 -127 -216l-35 40q46 34 46 79q0 12 -10 41.5z" />
    <glyph glyph-name="dagger" unicode="&#x2020;" horiz-adv-x="472" 
d="M460 572v-106h-54l-105 11l-17 -477h-96l-17 477l-105 -11h-54v106h54l102 -11l-6 169h148l-6 -169l102 11h54z" />
    <glyph glyph-name="daggerdbl" unicode="&#x2021;" horiz-adv-x="472" 
d="M12 158v106h54l114 -12l8 113l-8 112l-114 -11h-54v106h54l108 -11l-12 169h148l-12 -169l108 11h54v-106h-54l-114 11l-8 -112l8 -113l114 12h54v-106h-54l-108 11l12 -169h-148l12 169l-108 -11h-54z" />
    <glyph glyph-name="bullet" unicode="&#x2022;" horiz-adv-x="272" 
d="M191.5 224q-23.5 -10 -59.5 -10t-59 10t-33 29q-16 30 -16 67t3 54.5t13 36.5q20 38 91 38q75 0 93 -39q16 -31 16 -67.5t-3 -53.5t-12.5 -36t-33 -29z" />
    <glyph glyph-name="ellipsis" unicode="&#x2026;" horiz-adv-x="734" 
d="M156.5 -1.5q-15.5 -6.5 -43.5 -6.5t-44.5 13t-20 27.5t-3.5 34.5t2 31.5t9 24.5q12 26 60 26q50 0 62 -26q11 -21 11 -45.5t-2 -35.5t-8.5 -24t-22 -19.5zM406.5 -1.5q-15.5 -6.5 -43.5 -6.5t-44.5 13t-20 27.5t-3.5 34.5t2 31.5t9 24.5q12 26 60 26q50 0 62 -26
q11 -21 11 -45.5t-2 -35.5t-8.5 -24t-22 -19.5zM656.5 -1.5q-15.5 -6.5 -43.5 -6.5t-44.5 13t-20 27.5t-3.5 34.5t2 31.5t9 24.5q12 26 60 26q50 0 62 -26q11 -21 11 -45.5t-2 -35.5t-8.5 -24t-22 -19.5z" />
    <glyph glyph-name="perthousand" unicode="&#x2030;" horiz-adv-x="1367" 
d="M320 -66l214 801h85l-215 -801h-84zM1150 -8q-94 0 -129.5 54.5t-35.5 155.5t35.5 156.5t129.5 55.5t130 -55.5t36 -156.5t-36 -155.5t-130 -54.5zM1110 105q10 -28 40.5 -28t40.5 28t10 98t-10 97.5t-40.5 27.5t-40.5 -27.5t-10 -97.5t10 -98zM199 318
q-94 0 -129.5 54.5t-35.5 155.5t35.5 156.5t129.5 55.5t130 -55.5t36 -156.5t-36 -155.5t-130 -54.5zM159 431q10 -28 40.5 -28t40.5 28t10 98t-10 97.5t-40.5 27.5t-40.5 -27.5t-10 -97.5t10 -98zM750 -8q-94 0 -129.5 54.5t-35.5 155.5t35.5 156.5t129.5 55.5t130 -55.5
t36 -156.5t-36 -155.5t-130 -54.5zM710 105q10 -28 40.5 -28t40.5 28t10 98t-10 97.5t-40.5 27.5t-40.5 -27.5t-10 -97.5t10 -98z" />
    <glyph glyph-name="guilsinglleft" unicode="&#x2039;" horiz-adv-x="305" 
d="M267 466l-114 -151l114 -151l-65 -64l-180 191v48l180 191z" />
    <glyph glyph-name="guilsinglright" unicode="&#x203a;" horiz-adv-x="305" 
d="M38 164l114 151l-114 151l65 64l180 -191v-48l-180 -191z" />
    <glyph glyph-name="fraction" unicode="&#x2044;" horiz-adv-x="283" 
d="M-8 -66l214 801h85l-215 -801h-84z" />
    <glyph glyph-name="Euro" unicode="&#x20ac;" horiz-adv-x="630" 
d="M29 401v91h71q38 252 264 252q120 0 179.5 -50.5t61.5 -143.5l-118 -8q0 46 -34.5 71t-91 25t-87 -37.5t-41.5 -108.5h186v-91h-193v-72h193v-91h-186q11 -72 41.5 -109.5t87.5 -37.5t91.5 26t34.5 73l118 -8q-2 -94 -62 -145t-181.5 -51t-183 66.5t-79.5 185.5h-71v91
h63v72h-63z" />
    <glyph glyph-name="trademark" unicode="&#x2122;" horiz-adv-x="1005" 
d="M910 730v-442h-105v297l-82 -232h-96l-73 222v-287h-106v442h153l75 -242l83 242h151zM55 643v87h320v-87h-107v-355h-106v355h-107z" />
    <glyph glyph-name="Omega" unicode="&#x2126;" horiz-adv-x="797" 
d="M563.5 584q-43.5 52 -165 52t-165 -52t-43.5 -162q0 -83 30 -129.5t98 -65.5v-227h-242v88h126v80q-148 73 -148 259q0 156 79.5 237t264.5 81t265 -81t80 -237q0 -185 -148 -259v-80h126v-88h-242v227q68 19 98 65.5t30 129.5q0 110 -43.5 162z" />
    <glyph glyph-name="partialdiff" unicode="&#x2202;" horiz-adv-x="598" 
d="M562 371q0 -200 -71 -292.5t-238 -92.5q-121 0 -169 49.5t-48 133.5q0 167 70 252t234 85q56 0 88 -32q-15 119 -93 215l75 75q152 -160 152 -393zM271 85q80 0 115 55.5t35 161t-98 105.5q-80 0 -115.5 -56t-35.5 -161t99 -105z" />
    <glyph glyph-name="Delta" unicode="&#x2206;" horiz-adv-x="606" 
d="M229 730h148l259 -730h-666zM303 580l-168 -492h336z" />
    <glyph glyph-name="product" unicode="&#x220f;" horiz-adv-x="760" 
d="M54 642v88h652v-88h-66v-815h-134v815h-253v-815h-134v815h-65z" />
    <glyph glyph-name="summation" unicode="&#x2211;" horiz-adv-x="596" 
d="M39 730h529v-88h-389l243 -371l-238 -357h384v-87h-529v87l238 357l-238 371v88z" />
    <glyph glyph-name="minus" unicode="&#x2212;" 
d="M86 272v92h408v-92h-408z" />
    <glyph glyph-name="radical" unicode="&#x221a;" horiz-adv-x="571" 
d="M629 730v-87h-138l-192 -643h-148l-159 437h135l93 -274l162 567h247z" />
    <glyph glyph-name="infinity" unicode="&#x221e;" horiz-adv-x="606" 
d="M63 467.5q39 41.5 120.5 41.5t117.5 -54q35 54 119 54t123 -41.5t39 -149t-39 -149t-121 -41.5t-118 54q-36 -54 -119 -54t-122 41.5t-39 149t39 149zM414 232q36 0 53 18t17 68t-17 68t-49.5 18t-48 -20t-22.5 -58l-7 -36q21 -58 74 -58zM237.5 387q-19.5 17 -50.5 17
t-48 -18t-17 -68t17 -68t50 -18t48 20.5t22 59.5l6 33q-8 25 -27.5 42z" />
    <glyph glyph-name="integral" unicode="&#x222b;" horiz-adv-x="476" 
d="M174 -33v548q0 116 51 172.5t161 56.5q83 0 142 -37l-39 -94q-39 25 -86 25q-93 0 -93 -123v-548q0 -116 -50.5 -172t-160.5 -56q-81 0 -142 37l39 94q37 -25 87 -25q91 0 91 122z" />
    <glyph glyph-name="approxequal" unicode="&#x2248;" 
d="M86 464q34 -24 80.5 -24t123 21.5t122 21.5t82.5 -19v-92q-38 21 -83 21t-121.5 -21.5t-121.5 -21.5t-82 22v92zM86 264q34 -24 80.5 -24t123 21.5t122 21.5t82.5 -19v-92q-38 21 -83 21t-121.5 -21.5t-121.5 -21.5t-82 22v92z" />
    <glyph glyph-name="notequal" unicode="&#x2260;" 
d="M84 380v92h200l71 263h85l-71 -263h123v-92h-148l-33 -124h181v-92h-206l-61 -230h-84l61 230h-118v92h143l33 124h-176z" />
    <glyph glyph-name="lessequal" unicode="&#x2264;" 
d="M89 329v116l402 172v-102l-318 -128l318 -128v-102zM86 0v92h408v-92h-408z" />
    <glyph glyph-name="greaterequal" unicode="&#x2265;" 
d="M491 445v-116l-402 -172v102l317 128l-317 128v102zM86 0v92h408v-92h-408z" />
    <glyph glyph-name="lozenge" unicode="&#x25ca;" horiz-adv-x="556" 
d="M204 770h148l186 -435l-186 -435h-148l-186 435zM278 26l125 309l-125 309l-125 -309z" />
    <glyph glyph-name="apple" unicode="&#xf8ff;" horiz-adv-x="907" 
d="M581 -89l-23 1q-14 0 -31.5 -12t-26.5 -12l-46 10q-8 0 -23.5 -6t-24 -6t-24.5 12.5t-29 12.5l-24 -2q-15 0 -33 17l-18 19q-12 6 -25 7t-22 6.5t-16 23t-12.5 22t-19.5 10t-20 14.5q-5 9 -7 23.5t-6 21t-14 13.5q-22 18 -22 38l3 25q0 9 -12.5 26.5t-12.5 26.5t6 23.5
t6 23t-6 21.5t-6 22t12.5 29.5t12.5 29.5l-1 25q0 15 16.5 29.5t19 19.5t4.5 21t6 22t19.5 12t20.5 11t12 20.5t13.5 21t25.5 9.5t24.5 7t20.5 20t29 18l26 -2q13 0 28.5 11.5t26.5 11.5l44 -12l45 12q13 0 29 -12.5t28 -12.5l28 3q16 0 29 -16.5t19.5 -20t21.5 -6.5
t22.5 -8t12.5 -19t10.5 -19t25.5 -15.5t24.5 -18.5t5 -24t3 -20.5t19.5 -19t17 -30.5l-1 -25q0 -13 12 -31.5t12 -27.5t-5.5 -22t-5.5 -20t5.5 -21.5t5 -22.5t-12.5 -20.5t-12 -26.5l2 -32q0 -16 -16 -29t-18.5 -18t-7 -24t-10 -25.5t-18 -12t-17.5 -10.5t-14 -21.5
t-16 -21.5t-24.5 -9.5t-22.5 -7.5t-18.5 -16.5t-28.5 -13.5zM454 -6l33 -7q6 0 17 7q15 10 27 10l15 -1q12 0 21 10t12.5 12t16.5 5.5t18.5 7.5t12 15.5t10 15t12.5 7.5t13 8.5t7 18.5t5.5 18t13.5 13t11 23l-1 20q0 11 8.5 20.5t9.5 15.5l-8 32l8 28q0 8 -9 22t-9 23l1 17
q0 12 -12 22t-14 14t-2.5 15.5t-3.5 17t-17.5 13t-18.5 11.5t-8 14t-9 14t-16 6t-16 4.5t-14 14.5t-21 12l-20 -2q-9 0 -20 9t-21 9l-33 -9l-32 9q-8 0 -20 -8.5t-22 -8.5l-17 1q-11 0 -21.5 -12.5t-15 -15t-17.5 -5t-18 -6.5t-10 -15t-9 -15t-14.5 -8t-14.5 -9
q-2 -4 -4 -15.5t-4 -15.5t-14 -14.5t-12 -21.5l1 -16q0 -8 -8.5 -23t-8.5 -23l8 -30l-8 -33q0 -8 8.5 -20.5t8.5 -20.5l-2 -16q0 -11 12.5 -22.5t14.5 -15.5t3.5 -14.5t5.5 -17t14 -10.5t14 -7.5t9.5 -16.5t11.5 -17t15.5 -4t15.5 -3t17.5 -15.5t22.5 -12.5l15 1
q10 0 22 -8.5t18 -9.5zM454 417q70 0 120 -49.5t50 -120.5t-50 -120.5t-120 -49.5t-120 49.5t-50 120.5t50 120.5t120 49.5zM497 292h52v68h-191v-68h54v-175h85v175z" />
    </font>
</defs>
</svg>
